<svg version="1.1" id="Layer_1" xmlns="http://www.w3.org/2000/svg" xmlns:xlink="http://www.w3.org/1999/xlink" x="0px" y="0px"
	 width="100%" viewBox="0 0 3840 2160" enable-background="new 0 0 3840 2160" xml:space="preserve">
<path fill="#47704C" opacity="1.000000" stroke="none" 
	d="
M2898.000000,2162.000000 
	C1932.000122,2162.000000 967.000366,2162.000000 2.000388,2162.000000 
	C2.000259,1442.000244 2.000259,722.000610 2.000129,2.000452 
	C3.999698,2.000000 5.999396,2.000000 7.999094,2.000000 
	C1285.998779,2.000000 2563.998535,2.000000 3841.998535,2.000000 
	C3841.999023,721.999329 3841.999023,1441.998657 3841.999512,2161.999023 
	C3527.666748,2162.000000 3213.333252,2162.000000 2898.000000,2162.000000 
M2021.000000,1479.756226 
	C2229.320312,1479.688232 2437.640381,1479.620728 2645.960693,1479.531860 
	C2646.605957,1479.531616 2647.265869,1479.264648 2647.889648,1479.040161 
	C2648.183594,1478.934326 2648.413574,1478.640869 2648.661621,1478.420044 
	C2648.906006,1478.202515 2649.136475,1477.969238 2649.346191,1477.768433 
	C2651.311279,1464.125610 2650.587158,48.613335 2648.617920,41.357998 
	C2638.465088,39.150059 1205.016846,39.515148 1197.322021,41.773716 
	C1197.047241,42.613327 1196.478027,43.540684 1196.477783,44.468182 
	C1196.376709,519.441284 1196.312866,994.414368 1196.279053,1469.387451 
	C1196.278809,1472.026855 1196.695679,1474.667603 1196.960205,1477.303467 
	C1196.988892,1477.587769 1197.284546,1477.859131 1197.491089,1478.107544 
	C1197.703125,1478.362671 1197.957642,1478.582764 1199.132812,1479.755493 
	C1471.794189,1479.755493 1745.397095,1479.755493 2021.000000,1479.756226 
M1633.754150,1833.000000 
	C1633.686035,1764.015991 1633.619263,1695.031982 1633.529541,1626.047974 
	C1633.528687,1625.402588 1633.262207,1624.743042 1633.038452,1624.119263 
	C1632.932861,1623.825195 1632.642822,1623.592651 1632.421265,1623.345703 
	C1632.202759,1623.102295 1631.964600,1622.876343 1631.563232,1622.467896 
	C1597.559814,1622.467896 1563.392944,1622.467896 1528.354736,1622.467896 
	C1528.131348,1627.350708 1527.770264,1631.584106 1527.768799,1635.817383 
	C1527.736206,1726.466309 1527.748657,1817.115112 1527.725220,1907.764038 
	C1527.724365,1911.105347 1527.449341,1914.446533 1527.202515,1920.047729 
	C1524.156616,1916.473511 1522.827026,1915.042847 1521.640747,1913.502075 
	C1490.148926,1872.601562 1458.674194,1831.687988 1427.192017,1790.780151 
	C1385.756714,1736.938721 1344.253540,1683.149292 1302.981934,1629.182739 
	C1298.970825,1623.937988 1294.848267,1621.505127 1288.070679,1621.597046 
	C1261.080933,1621.962524 1234.083252,1621.718750 1207.088745,1621.782349 
	C1203.583374,1621.790527 1200.078979,1622.274780 1196.696777,1622.529175 
	C1196.266724,1625.009521 1195.845459,1626.305420 1195.845093,1627.601318 
	C1195.798340,1785.236816 1195.780640,1942.872314 1195.793457,2100.507812 
	C1195.793579,2102.146729 1196.200073,2103.788574 1196.460327,2105.421875 
	C1196.507935,2105.721191 1196.735962,2106.010986 1196.936157,2106.260742 
	C1197.142456,2106.518066 1197.416260,2106.720947 1197.660522,2106.947754 
	C1210.899780,2109.170410 1294.078247,2108.413330 1301.754395,2105.682861 
	C1301.754395,2094.736816 1301.754395,2083.449707 1301.754395,2072.162842 
	C1301.754395,2060.831787 1301.754395,2049.500488 1301.754395,2038.169434 
	C1301.754395,2026.838379 1301.754395,2015.507202 1301.754395,2004.176147 
	C1301.754395,1992.844971 1301.754395,1981.513916 1301.754395,1970.182739 
	C1301.754395,1959.184937 1301.754395,1948.187012 1301.754395,1937.189209 
	C1301.754395,1925.858154 1301.754395,1914.526978 1301.754395,1903.195923 
	C1301.754395,1891.864868 1301.754395,1880.533691 1301.754395,1869.202637 
	C1301.754395,1857.871460 1301.575806,1846.536743 1301.805176,1835.210205 
	C1302.029175,1824.156372 1300.785522,1813.011597 1302.834473,1800.577026 
	C1305.393799,1803.390259 1307.023438,1804.957764 1308.394897,1806.725708 
	C1316.356323,1816.988892 1324.246704,1827.307373 1332.180176,1837.592285 
	C1379.166870,1898.505127 1426.143677,1959.425537 1473.155884,2020.318726 
	C1494.118042,2047.470215 1515.236450,2074.501709 1536.074219,2101.748047 
	C1539.430542,2106.136475 1543.020020,2108.143311 1548.613403,2108.093018 
	C1573.939819,2107.864990 1599.269287,2108.026855 1624.597412,2107.946777 
	C1627.421143,2107.937744 1630.242798,2107.283936 1633.753540,2106.842773 
	C1633.753540,2015.560425 1633.753540,1925.280273 1633.754150,1833.000000 
M2361.621094,2107.575195 
	C2379.717773,2112.246826 2398.097168,2115.206543 2416.763916,2116.023682 
	C2454.977539,2117.696777 2492.665039,2114.815918 2528.922119,2101.498291 
	C2567.676025,2087.263672 2598.909180,2063.646973 2620.352051,2027.790771 
	C2641.806152,1991.916260 2650.990479,1952.410889 2651.435791,1911.396606 
	C2652.441650,1818.769531 2651.759277,1726.124023 2651.724854,1633.486084 
	C2651.723389,1629.941528 2651.319824,1626.397217 2651.120361,1623.125977 
	C2638.968994,1620.794189 2551.966309,1621.331665 2543.745850,1623.918701 
	C2543.745850,1627.830322 2543.745850,1632.094604 2543.745850,1636.358887 
	C2543.745605,1723.665161 2543.765869,1810.971558 2543.727295,1898.277832 
	C2543.720215,1914.652222 2541.961182,1930.902832 2537.386230,1946.614014 
	C2526.946289,1982.467285 2504.161377,2005.760620 2467.162109,2014.358765 
	C2448.701660,2018.648682 2430.181152,2018.988525 2411.686523,2015.589966 
	C2381.387939,2010.022339 2358.201904,1994.367432 2344.260254,1966.250244 
	C2334.444580,1946.453857 2330.417236,1925.245972 2330.357178,1903.430908 
	C2330.110840,1814.125854 2330.263428,1724.819824 2330.225586,1635.514160 
	C2330.223877,1631.308838 2329.803711,1627.103760 2329.555664,1622.474365 
	C2293.442139,1622.474365 2258.327148,1622.474365 2222.349854,1622.474365 
	C2222.128662,1627.364380 2221.771973,1631.598267 2221.770264,1635.832275 
	C2221.738037,1723.471802 2221.780518,1811.111328 2221.721436,1898.750854 
	C2221.706543,1920.786743 2223.476074,1942.639404 2228.130859,1964.182739 
	C2244.016602,2037.708984 2286.556885,2086.722656 2361.621094,2107.575195 
M1879.742554,1941.073364 
	C1879.742676,1959.738281 1879.742798,1978.403076 1879.742798,1997.067993 
	C1879.742798,2015.733032 1879.573853,2034.399902 1879.790649,2053.062500 
	C1880.005493,2071.568604 1878.829834,2090.126709 1880.475952,2108.365479 
	C1891.919434,2110.556641 1979.347656,2110.191650 1988.000488,2107.786377 
	C1988.000488,2104.225586 1988.000366,2100.303467 1988.000366,2096.381348 
	C1988.000610,2040.052979 1988.136230,1983.723877 1987.848633,1927.396973 
	C1987.807373,1919.328003 1989.753418,1912.568237 1994.083252,1905.904663 
	C2030.383789,1850.038818 2066.536133,1794.076660 2102.715088,1738.131958 
	C2125.508301,1702.886353 2148.281982,1667.628174 2171.021484,1632.348022 
	C2172.725830,1629.703735 2174.087402,1626.838379 2176.121094,1623.144287 
	C2172.773438,1622.723755 2170.887207,1622.282227 2169.000488,1622.280029 
	C2133.003662,1622.239014 2097.006104,1622.383667 2061.011230,1622.125610 
	C2054.563232,1622.079468 2051.656006,1625.349121 2048.668213,1630.231689 
	C2012.678833,1689.043579 1976.537964,1747.762695 1940.408203,1806.488647 
	C1938.362793,1809.813354 1936.071899,1812.986938 1933.011597,1817.547852 
	C1930.478882,1813.702515 1928.628174,1811.107910 1926.995850,1808.382690 
	C1891.563354,1749.230835 1856.063110,1690.119019 1820.878784,1630.819824 
	C1817.195557,1624.612061 1813.158203,1622.024414 1805.878784,1622.091797 
	C1770.551636,1622.419067 1735.219604,1622.224365 1699.889404,1622.267700 
	C1697.025146,1622.271240 1694.161377,1622.675659 1690.019165,1622.991211 
	C1691.805054,1626.588501 1692.850586,1629.283325 1694.374756,1631.672974 
	C1709.241699,1654.982422 1724.171265,1678.251831 1739.116089,1701.511597 
	C1782.512085,1769.051880 1825.688477,1836.735840 1869.561646,1903.964966 
	C1876.820435,1915.088135 1881.611816,1925.854370 1879.742554,1941.073364 
z"/>
<path fill="#650190" opacity="1.000000" stroke="none" 
	d="
M2020.000000,1479.755859 
	C1745.397095,1479.755493 1471.794189,1479.755493 1199.132812,1479.755493 
	C1197.957642,1478.582764 1197.703125,1478.362671 1197.491089,1478.107544 
	C1197.284546,1477.859131 1196.988892,1477.587769 1196.960205,1477.303467 
	C1196.695679,1474.667603 1196.278809,1472.026855 1196.279053,1469.387451 
	C1196.312866,994.414368 1196.376709,519.441284 1196.477783,44.468182 
	C1196.478027,43.540684 1197.047241,42.613327 1197.322021,41.773716 
	C1205.016846,39.515148 2638.465088,39.150059 2648.617920,41.357998 
	C2650.587158,48.613335 2651.311279,1464.125610 2649.346191,1477.768433 
	C2649.136475,1477.969238 2648.906006,1478.202515 2648.661621,1478.420044 
	C2648.413574,1478.640869 2648.183594,1478.934326 2647.889648,1479.040161 
	C2647.265869,1479.264648 2646.605957,1479.531616 2645.960693,1479.531860 
	C2437.640381,1479.620728 2229.320312,1479.688232 2020.000000,1479.755859 
M1999.709229,423.268280 
	C1997.043335,390.228485 1989.536011,358.156006 1979.364868,326.747986 
	C1973.632324,309.045654 1966.444214,291.808960 1959.693726,274.447296 
	C1958.462524,271.280853 1956.179321,268.523438 1954.233521,265.334320 
	C1948.256958,278.603485 1943.405762,290.951324 1937.289185,302.636902 
	C1923.022949,329.892914 1904.920288,354.659302 1885.411499,378.325043 
	C1864.880859,403.230072 1843.232422,427.219574 1822.899780,452.280304 
	C1798.688965,482.120819 1777.736450,514.087158 1763.368042,550.039612 
	C1739.914673,608.724670 1746.969482,662.773926 1787.422607,711.892944 
	C1811.826294,741.524475 1841.844727,764.594055 1873.743164,785.433350 
	C1874.646362,786.023499 1876.049438,785.848694 1877.007690,785.997681 
	C1877.458740,785.117920 1877.789917,784.766785 1877.714722,784.576294 
	C1874.909058,777.477783 1871.990967,770.423035 1869.239990,763.303650 
	C1854.536743,725.251465 1849.260986,686.111816 1856.043701,645.664917 
	C1862.453613,607.442444 1878.758301,573.489563 1901.213257,542.267517 
	C1924.935547,509.283051 1953.943726,481.367645 1985.730835,456.416046 
	C1996.511841,447.953217 2002.489502,438.890137 1999.709229,423.268280 
M2176.693848,675.734619 
	C2180.057373,669.234619 2183.677734,662.853271 2186.743896,656.215942 
	C2213.406250,598.499634 2221.361328,537.134216 2221.944580,474.360535 
	C2221.954590,473.278320 2221.247803,472.189392 2220.863037,471.067047 
	C2219.904785,471.453064 2219.467529,471.486938 2219.348389,471.699402 
	C2218.224609,473.701813 2217.044678,475.684052 2216.086914,477.766754 
	C2208.654297,493.928009 2198.623535,508.385895 2187.081299,521.822510 
	C2158.115479,555.542542 2122.510010,580.200256 2081.935303,597.770874 
	C2054.115234,609.818359 2029.076416,625.835510 2007.474854,647.140076 
	C1972.692749,681.443848 1949.654541,722.387024 1938.465698,769.924438 
	C1936.679321,777.513611 1935.840698,785.325867 1934.474854,793.573914 
	C1937.358643,793.795532 1938.971802,793.992737 1940.588989,794.032715 
	C1963.264282,794.592896 1985.853638,793.740662 2008.288086,790.079590 
	C2081.542236,778.125427 2138.588379,742.144897 2176.693848,675.734619 
M2078.302002,391.070770 
	C2076.744873,393.630127 2075.236328,396.220459 2073.623291,398.744080 
	C2053.250000,430.619965 2030.046143,459.782196 1999.165771,482.540344 
	C1974.174194,500.958405 1952.172485,522.790649 1933.290649,547.592773 
	C1885.018555,610.999512 1871.268921,680.268066 1897.934570,756.344788 
	C1900.291870,763.070557 1903.234253,769.591248 1906.470947,777.609314 
	C1909.905640,765.044861 1912.531128,754.384644 1915.736450,743.901733 
	C1928.188599,703.178894 1948.193848,666.782227 1977.813354,635.868958 
	C2004.944946,607.551941 2037.811523,587.637695 2072.528564,570.296875 
	C2086.803711,563.166565 2100.932129,555.730408 2114.970947,548.143616 
	C2124.655273,542.909973 2130.543213,534.545227 2131.920898,523.626648 
	C2133.498779,511.121185 2135.833496,498.473206 2135.334717,485.987152 
	C2133.680664,444.591095 2122.445557,405.356079 2105.797119,367.598572 
	C2103.990479,363.501343 2101.379639,359.758789 2098.284180,354.354614 
	C2091.276123,367.288361 2085.170898,378.555908 2078.302002,391.070770 
M1721.883911,770.969849 
	C1753.571289,786.523132 1823.314697,797.049377 1838.653442,792.197083 
	C1838.328979,791.632141 1838.143066,790.870117 1837.661377,790.540527 
	C1834.647339,788.479126 1831.582031,786.491272 1828.506714,784.521118 
	C1805.998413,770.101929 1785.157104,753.757874 1767.487915,733.485352 
	C1723.697876,683.242981 1711.866089,625.973694 1729.254883,562.153992 
	C1736.587158,535.243286 1748.965698,510.629059 1764.102417,487.369049 
	C1767.440308,482.240051 1768.797119,477.203094 1767.371704,471.350281 
	C1759.993164,441.052795 1747.466309,412.833923 1732.551147,385.604919 
	C1731.640381,383.942261 1729.461914,382.974030 1727.055420,381.017944 
	C1724.681641,402.866241 1716.829590,421.513947 1708.554321,439.990204 
	C1692.739624,475.299774 1672.969849,508.443542 1653.190063,541.620728 
	C1629.680420,581.053772 1622.343750,623.826721 1632.610962,668.503479 
	C1643.858154,717.443604 1675.356812,750.059326 1721.883911,770.969849 
M1920.726562,1180.136108 
	C1932.204956,1091.479126 1943.683350,1002.822266 1955.256226,913.435303 
	C1913.595215,913.435303 1873.147705,913.435303 1832.008423,913.435303 
	C1832.161499,916.939026 1832.128296,919.891724 1832.441895,922.807007 
	C1838.457642,978.711548 1844.516113,1034.611450 1850.561646,1090.512817 
	C1858.359985,1162.619507 1866.152100,1234.726929 1873.953979,1306.833252 
	C1874.981323,1316.329346 1880.284424,1321.093994 1889.763672,1321.100464 
	C1897.776367,1321.105835 1902.898804,1316.365845 1904.105225,1307.614380 
	C1905.786133,1295.419312 1907.397095,1283.214478 1908.966309,1271.004395 
	C1912.783691,1241.301758 1916.559692,1211.593994 1920.726562,1180.136108 
M1877.000732,822.831848 
	C1847.695435,822.964783 1818.390137,823.096436 1789.084961,823.249695 
	C1788.802979,823.251160 1788.500366,823.510986 1788.247437,823.703003 
	C1787.984619,823.902649 1787.770630,824.166687 1787.534302,824.401489 
	C1785.790527,839.971558 1786.418823,876.775757 1788.486572,883.430054 
	C1857.628662,883.430054 1926.709961,883.430054 1995.628662,883.430054 
	C1995.628662,862.906128 1995.628662,843.098877 1995.628662,822.831909 
	C1956.262329,822.831909 1917.631592,822.831909 1877.000732,822.831848 
z"/>
<path fill="#650290" opacity="1.000000" stroke="none" 
	d="
M1633.753906,1834.000000 
	C1633.753540,1925.280273 1633.753540,2015.560425 1633.753540,2106.842773 
	C1630.242798,2107.283936 1627.421143,2107.937744 1624.597412,2107.946777 
	C1599.269287,2108.026855 1573.939819,2107.864990 1548.613403,2108.093018 
	C1543.020020,2108.143311 1539.430542,2106.136475 1536.074219,2101.748047 
	C1515.236450,2074.501709 1494.118042,2047.470215 1473.155884,2020.318726 
	C1426.143677,1959.425537 1379.166870,1898.505127 1332.180176,1837.592285 
	C1324.246704,1827.307373 1316.356323,1816.988892 1308.394897,1806.725708 
	C1307.023438,1804.957764 1305.393799,1803.390259 1302.834473,1800.577026 
	C1300.785522,1813.011597 1302.029175,1824.156372 1301.805176,1835.210205 
	C1301.575806,1846.536743 1301.754395,1857.871460 1301.754395,1869.202637 
	C1301.754395,1880.533691 1301.754395,1891.864868 1301.754395,1903.195923 
	C1301.754395,1914.526978 1301.754395,1925.858154 1301.754395,1937.189209 
	C1301.754395,1948.187012 1301.754395,1959.184937 1301.754395,1970.182739 
	C1301.754395,1981.513916 1301.754395,1992.844971 1301.754395,2004.176147 
	C1301.754395,2015.507202 1301.754395,2026.838379 1301.754395,2038.169434 
	C1301.754395,2049.500488 1301.754395,2060.831787 1301.754395,2072.162842 
	C1301.754395,2083.449707 1301.754395,2094.736816 1301.754395,2105.682861 
	C1294.078247,2108.413330 1210.899780,2109.170410 1197.660522,2106.947754 
	C1197.416260,2106.720947 1197.142456,2106.518066 1196.936157,2106.260742 
	C1196.735962,2106.010986 1196.507935,2105.721191 1196.460327,2105.421875 
	C1196.200073,2103.788574 1195.793579,2102.146729 1195.793457,2100.507812 
	C1195.780640,1942.872314 1195.798340,1785.236816 1195.845093,1627.601318 
	C1195.845459,1626.305420 1196.266724,1625.009521 1196.696777,1622.529175 
	C1200.078979,1622.274780 1203.583374,1621.790527 1207.088745,1621.782349 
	C1234.083252,1621.718750 1261.080933,1621.962524 1288.070679,1621.597046 
	C1294.848267,1621.505127 1298.970825,1623.937988 1302.981934,1629.182739 
	C1344.253540,1683.149292 1385.756714,1736.938721 1427.192017,1790.780151 
	C1458.674194,1831.687988 1490.148926,1872.601562 1521.640747,1913.502075 
	C1522.827026,1915.042847 1524.156616,1916.473511 1527.202515,1920.047729 
	C1527.449341,1914.446533 1527.724365,1911.105347 1527.725220,1907.764038 
	C1527.748657,1817.115112 1527.736206,1726.466309 1527.768799,1635.817383 
	C1527.770264,1631.584106 1528.131348,1627.350708 1528.354736,1622.467896 
	C1563.392944,1622.467896 1597.559814,1622.467896 1631.563232,1622.467896 
	C1631.964600,1622.876343 1632.202759,1623.102295 1632.421265,1623.345703 
	C1632.642822,1623.592651 1632.932861,1623.825195 1633.038452,1624.119263 
	C1633.262207,1624.743042 1633.528687,1625.402588 1633.529541,1626.047974 
	C1633.619263,1695.031982 1633.686035,1764.015991 1633.753906,1834.000000 
z"/>
<path fill="#650190" opacity="1.000000" stroke="none" 
	d="
M2360.832275,2107.356934 
	C2286.556885,2086.722656 2244.016602,2037.708984 2228.130859,1964.182739 
	C2223.476074,1942.639404 2221.706543,1920.786743 2221.721436,1898.750854 
	C2221.780518,1811.111328 2221.738037,1723.471802 2221.770264,1635.832275 
	C2221.771973,1631.598267 2222.128662,1627.364380 2222.349854,1622.474365 
	C2258.327148,1622.474365 2293.442139,1622.474365 2329.555664,1622.474365 
	C2329.803711,1627.103760 2330.223877,1631.308838 2330.225586,1635.514160 
	C2330.263428,1724.819824 2330.110840,1814.125854 2330.357178,1903.430908 
	C2330.417236,1925.245972 2334.444580,1946.453857 2344.260254,1966.250244 
	C2358.201904,1994.367432 2381.387939,2010.022339 2411.686523,2015.589966 
	C2430.181152,2018.988525 2448.701660,2018.648682 2467.162109,2014.358765 
	C2504.161377,2005.760620 2526.946289,1982.467285 2537.386230,1946.614014 
	C2541.961182,1930.902832 2543.720215,1914.652222 2543.727295,1898.277832 
	C2543.765869,1810.971558 2543.745605,1723.665161 2543.745850,1636.358887 
	C2543.745850,1632.094604 2543.745850,1627.830322 2543.745850,1623.918701 
	C2551.966309,1621.331665 2638.968994,1620.794189 2651.120361,1623.125977 
	C2651.319824,1626.397217 2651.723389,1629.941528 2651.724854,1633.486084 
	C2651.759277,1726.124023 2652.441650,1818.769531 2651.435791,1911.396606 
	C2650.990479,1952.410889 2641.806152,1991.916260 2620.352051,2027.790771 
	C2598.909180,2063.646973 2567.676025,2087.263672 2528.922119,2101.498291 
	C2492.665039,2114.815918 2454.977539,2117.696777 2416.763916,2116.023682 
	C2398.097168,2115.206543 2379.717773,2112.246826 2360.832275,2107.356934 
z"/>
<path fill="#650290" opacity="1.000000" stroke="none" 
	d="
M1879.742188,1940.090332 
	C1881.611816,1925.854370 1876.820435,1915.088135 1869.561646,1903.964966 
	C1825.688477,1836.735840 1782.512085,1769.051880 1739.116089,1701.511597 
	C1724.171265,1678.251831 1709.241699,1654.982422 1694.374756,1631.672974 
	C1692.850586,1629.283325 1691.805054,1626.588501 1690.019165,1622.991211 
	C1694.161377,1622.675659 1697.025146,1622.271240 1699.889404,1622.267700 
	C1735.219604,1622.224365 1770.551636,1622.419067 1805.878784,1622.091797 
	C1813.158203,1622.024414 1817.195557,1624.612061 1820.878784,1630.819824 
	C1856.063110,1690.119019 1891.563354,1749.230835 1926.995850,1808.382690 
	C1928.628174,1811.107910 1930.478882,1813.702515 1933.011597,1817.547852 
	C1936.071899,1812.986938 1938.362793,1809.813354 1940.408203,1806.488647 
	C1976.537964,1747.762695 2012.678833,1689.043579 2048.668213,1630.231689 
	C2051.656006,1625.349121 2054.563232,1622.079468 2061.011230,1622.125610 
	C2097.006104,1622.383667 2133.003662,1622.239014 2169.000488,1622.280029 
	C2170.887207,1622.282227 2172.773438,1622.723755 2176.121094,1623.144287 
	C2174.087402,1626.838379 2172.725830,1629.703735 2171.021484,1632.348022 
	C2148.281982,1667.628174 2125.508301,1702.886353 2102.715088,1738.131958 
	C2066.536133,1794.076660 2030.383789,1850.038818 1994.083252,1905.904663 
	C1989.753418,1912.568237 1987.807373,1919.328003 1987.848633,1927.396973 
	C1988.136230,1983.723877 1988.000610,2040.052979 1988.000366,2096.381348 
	C1988.000366,2100.303467 1988.000488,2104.225586 1988.000488,2107.786377 
	C1979.347656,2110.191650 1891.919434,2110.556641 1880.475952,2108.365479 
	C1878.829834,2090.126709 1880.005493,2071.568604 1879.790649,2053.062500 
	C1879.573853,2034.399902 1879.742798,2015.733032 1879.742798,1997.067993 
	C1879.742798,1978.403076 1879.742676,1959.738281 1879.742188,1940.090332 
z"/>
<path fill="#FEFDFE" opacity="1.000000" stroke="none" 
	d="
M1999.786621,424.199158 
	C2002.489502,438.890137 1996.511841,447.953217 1985.730835,456.416046 
	C1953.943726,481.367645 1924.935547,509.283051 1901.213257,542.267517 
	C1878.758301,573.489563 1862.453613,607.442444 1856.043701,645.664917 
	C1849.260986,686.111816 1854.536743,725.251465 1869.239990,763.303650 
	C1871.990967,770.423035 1874.909058,777.477783 1877.714722,784.576294 
	C1877.789917,784.766785 1877.458740,785.117920 1877.007690,785.997681 
	C1876.049438,785.848694 1874.646362,786.023499 1873.743164,785.433350 
	C1841.844727,764.594055 1811.826294,741.524475 1787.422607,711.892944 
	C1746.969482,662.773926 1739.914673,608.724670 1763.368042,550.039612 
	C1777.736450,514.087158 1798.688965,482.120819 1822.899780,452.280304 
	C1843.232422,427.219574 1864.880859,403.230072 1885.411499,378.325043 
	C1904.920288,354.659302 1923.022949,329.892914 1937.289185,302.636902 
	C1943.405762,290.951324 1948.256958,278.603485 1954.233521,265.334320 
	C1956.179321,268.523438 1958.462524,271.280853 1959.693726,274.447296 
	C1966.444214,291.808960 1973.632324,309.045654 1979.364868,326.747986 
	C1989.536011,358.156006 1997.043335,390.228485 1999.786621,424.199158 
z"/>
<path fill="#FEFDFE" opacity="1.000000" stroke="none" 
	d="
M2176.357422,676.390686 
	C2138.588379,742.144897 2081.542236,778.125427 2008.288086,790.079590 
	C1985.853638,793.740662 1963.264282,794.592896 1940.588989,794.032715 
	C1938.971802,793.992737 1937.358643,793.795532 1934.474854,793.573914 
	C1935.840698,785.325867 1936.679321,777.513611 1938.465698,769.924438 
	C1949.654541,722.387024 1972.692749,681.443848 2007.474854,647.140076 
	C2029.076416,625.835510 2054.115234,609.818359 2081.935303,597.770874 
	C2122.510010,580.200256 2158.115479,555.542542 2187.081299,521.822510 
	C2198.623535,508.385895 2208.654297,493.928009 2216.086914,477.766754 
	C2217.044678,475.684052 2218.224609,473.701813 2219.348389,471.699402 
	C2219.467529,471.486938 2219.904785,471.453064 2220.863037,471.067047 
	C2221.247803,472.189392 2221.954590,473.278320 2221.944580,474.360535 
	C2221.361328,537.134216 2213.406250,598.499634 2186.743896,656.215942 
	C2183.677734,662.853271 2180.057373,669.234619 2176.357422,676.390686 
z"/>
<path fill="#FDFCFE" opacity="1.000000" stroke="none" 
	d="
M2078.683838,390.447083 
	C2085.170898,378.555908 2091.276123,367.288361 2098.284180,354.354614 
	C2101.379639,359.758789 2103.990479,363.501343 2105.797119,367.598572 
	C2122.445557,405.356079 2133.680664,444.591095 2135.334717,485.987152 
	C2135.833496,498.473206 2133.498779,511.121185 2131.920898,523.626648 
	C2130.543213,534.545227 2124.655273,542.909973 2114.970947,548.143616 
	C2100.932129,555.730408 2086.803711,563.166565 2072.528564,570.296875 
	C2037.811523,587.637695 2004.944946,607.551941 1977.813354,635.868958 
	C1948.193848,666.782227 1928.188599,703.178894 1915.736450,743.901733 
	C1912.531128,754.384644 1909.905640,765.044861 1906.470947,777.609314 
	C1903.234253,769.591248 1900.291870,763.070557 1897.934570,756.344788 
	C1871.268921,680.268066 1885.018555,610.999512 1933.290649,547.592773 
	C1952.172485,522.790649 1974.174194,500.958405 1999.165771,482.540344 
	C2030.046143,459.782196 2053.250000,430.619965 2073.623291,398.744080 
	C2075.236328,396.220459 2076.744873,393.630127 2078.683838,390.447083 
z"/>
<path fill="#FDFCFE" opacity="1.000000" stroke="none" 
	d="
M1721.209595,770.625610 
	C1675.356812,750.059326 1643.858154,717.443604 1632.610962,668.503479 
	C1622.343750,623.826721 1629.680420,581.053772 1653.190063,541.620728 
	C1672.969849,508.443542 1692.739624,475.299774 1708.554321,439.990204 
	C1716.829590,421.513947 1724.681641,402.866241 1727.055420,381.017944 
	C1729.461914,382.974030 1731.640381,383.942261 1732.551147,385.604919 
	C1747.466309,412.833923 1759.993164,441.052795 1767.371704,471.350281 
	C1768.797119,477.203094 1767.440308,482.240051 1764.102417,487.369049 
	C1748.965698,510.629059 1736.587158,535.243286 1729.254883,562.153992 
	C1711.866089,625.973694 1723.697876,683.242981 1767.487915,733.485352 
	C1785.157104,753.757874 1805.998413,770.101929 1828.506714,784.521118 
	C1831.582031,786.491272 1834.647339,788.479126 1837.661377,790.540527 
	C1838.143066,790.870117 1838.328979,791.632141 1838.653442,792.197083 
	C1823.314697,797.049377 1753.571289,786.523132 1721.209595,770.625610 
z"/>
<path fill="#FDFBFD" opacity="1.000000" stroke="none" 
	d="
M1920.539429,1181.012207 
	C1916.559692,1211.593994 1912.783691,1241.301758 1908.966309,1271.004395 
	C1907.397095,1283.214478 1905.786133,1295.419312 1904.105225,1307.614380 
	C1902.898804,1316.365845 1897.776367,1321.105835 1889.763672,1321.100464 
	C1880.284424,1321.093994 1874.981323,1316.329346 1873.953979,1306.833252 
	C1866.152100,1234.726929 1858.359985,1162.619507 1850.561646,1090.512817 
	C1844.516113,1034.611450 1838.457642,978.711548 1832.441895,922.807007 
	C1832.128296,919.891724 1832.161499,916.939026 1832.008423,913.435303 
	C1873.147705,913.435303 1913.595215,913.435303 1955.256226,913.435303 
	C1943.683350,1002.822266 1932.204956,1091.479126 1920.539429,1181.012207 
z"/>
<path fill="#FCF9FD" opacity="1.000000" stroke="none" 
	d="
M1878.000732,822.831909 
	C1917.631592,822.831909 1956.262329,822.831909 1995.628662,822.831909 
	C1995.628662,843.098877 1995.628662,862.906128 1995.628662,883.430054 
	C1926.709961,883.430054 1857.628662,883.430054 1788.486572,883.430054 
	C1786.418823,876.775757 1785.790527,839.971558 1787.534912,824.401978 
	C1787.770630,824.166687 1787.984619,823.902649 1788.247437,823.703003 
	C1788.500366,823.510986 1788.802979,823.251160 1789.084961,823.249695 
	C1818.390137,823.096436 1847.695435,822.964783 1878.000732,822.831909 
z"/>
</svg>