<svg version="1.1" id="Layer_1" xmlns="http://www.w3.org/2000/svg" xmlns:xlink="http://www.w3.org/1999/xlink" x="0px" y="0px"
	 width="100%" viewBox="0 0 225 225" enable-background="new 0 0 225 225" xml:space="preserve">
<path fill="#FFFEFE" opacity="1.000000" stroke="none" 
	d="
M115.000000,226.000000 
	C76.666672,226.000000 38.833340,226.000000 1.000005,226.000000 
	C1.000003,151.000000 1.000003,76.000015 1.000002,1.000015 
	C75.999992,1.000010 150.999985,1.000010 225.999969,1.000005 
	C225.999985,75.999985 225.999985,150.999969 226.000000,225.999969 
	C189.166672,226.000000 152.333328,226.000000 115.000000,226.000000 
M174.116669,133.513611 
	C174.412064,133.665817 174.707458,133.818039 175.001099,134.006256 
	C175.001099,134.006256 175.033310,133.990021 175.342636,134.481827 
	C175.852325,134.742569 176.362030,135.003296 176.886734,135.151031 
	C176.886734,135.151031 176.781372,135.194534 177.084610,135.759613 
	C178.042374,136.195862 179.000153,136.632126 179.982330,136.995529 
	C179.982330,136.995529 179.928986,137.050903 180.432175,137.579895 
	C187.964233,141.087967 195.850677,139.832092 203.601471,139.860001 
	C203.601471,134.938156 203.601471,130.573090 203.601471,126.484085 
	C197.467407,125.984634 191.731918,125.517639 185.812012,124.826584 
	C185.812012,124.826584 185.529282,124.891983 185.160446,124.385239 
	C184.781815,124.227272 184.403198,124.069305 183.701935,123.310806 
	C179.294510,119.346107 177.699265,114.560287 180.011429,108.967224 
	C182.402008,103.184448 187.119003,100.976151 193.173737,101.103905 
	C196.622543,101.176682 200.074127,101.117065 203.639648,101.117065 
	C203.639648,96.307106 203.639648,91.942863 203.639648,86.941544 
	C197.505447,87.259483 191.624451,86.943100 186.002304,88.001602 
	C177.612732,89.581116 171.112778,94.229233 167.293015,103.088921 
	C164.722504,108.907394 164.472839,114.880516 166.043854,121.563911 
	C166.379257,122.042496 166.714661,122.521080 167.026810,123.588966 
	C167.338852,124.079071 167.650894,124.569176 168.007797,125.021652 
	C168.007797,125.021652 167.949692,125.027916 167.991104,125.666733 
	C168.604019,126.510269 169.216934,127.353798 169.871368,128.101517 
	C169.871368,128.101517 169.767349,128.110550 169.879395,128.675385 
	C170.260986,129.093124 170.642563,129.510864 170.997940,129.987595 
	C170.997940,129.987595 171.062439,129.990372 171.163925,130.486588 
	C171.435226,130.671509 171.706528,130.856430 172.001633,131.000900 
	C172.001633,131.000900 171.959793,131.022018 172.117157,131.519043 
	C172.403015,131.698349 172.688873,131.877655 172.998871,132.001907 
	C172.998871,132.001907 172.943893,132.026199 173.105667,132.523026 
	C173.396606,132.697662 173.687561,132.872314 174.000473,133.000229 
	C174.000473,133.000229 173.954086,133.022873 174.116669,133.513611 
M159.276169,89.579094 
	C160.738388,85.679794 162.200623,81.780495 163.842239,77.402824 
	C158.520554,77.402824 154.476227,77.402824 150.282013,77.402824 
	C150.282013,82.730186 150.282013,87.681671 150.282013,93.285538 
	C152.449692,92.510582 154.249695,91.833000 156.073380,91.226593 
	C157.378815,90.792511 158.715973,90.453758 160.115372,90.789421 
	C156.899857,93.042435 153.684326,95.295456 150.524414,97.509514 
	C150.524414,111.363922 150.524414,125.593353 150.524414,139.761688 
	C155.026550,139.761688 159.135513,139.761688 163.503632,139.761688 
	C163.503632,121.616203 163.503632,103.713799 163.503632,86.381630 
	C162.483841,87.468506 161.277405,88.754295 159.276169,89.579094 
M70.825653,109.436852 
	C70.825653,109.436852 70.928825,109.888855 70.570679,110.640854 
	C70.570679,120.344490 70.570679,130.048126 70.570679,139.776794 
	C75.027267,139.776794 78.994781,139.776794 83.797813,139.544754 
	C83.907936,129.702835 84.018051,119.860924 84.609184,109.530678 
	C86.844963,103.740524 90.275345,100.829460 94.400215,101.221893 
	C98.886086,101.648674 101.731377,105.321732 102.375931,111.729935 
	C102.590897,113.867050 102.528908,116.033287 102.567017,118.186684 
	C102.684090,124.801933 102.788338,131.417419 102.754410,138.533936 
	C102.822754,138.693649 102.891098,138.853378 103.349335,139.785370 
	C107.548752,139.523010 111.748169,139.260635 116.160294,138.080994 
	C116.136032,129.059204 116.111771,120.037422 116.492699,110.437515 
	C117.680054,105.763184 119.350365,101.241928 125.162727,101.313057 
	C130.080093,101.373238 132.750427,104.700020 134.037018,109.228767 
	C134.303467,110.166656 134.648193,111.082314 134.850723,112.939186 
	C134.925278,121.620415 134.999832,130.301636 135.387558,139.790070 
	C139.765961,139.790070 144.144363,139.790070 148.099472,139.790070 
	C148.099472,129.428589 148.099472,119.698982 148.210541,109.236580 
	C148.080582,108.510963 147.950607,107.785347 147.857956,106.317619 
	C144.049194,90.106422 125.860123,80.308434 109.242523,93.219437 
	C90.530304,82.356163 72.695999,89.708252 70.825653,109.436852 
M68.870377,116.619965 
	C70.017731,101.173401 59.167564,84.946487 37.600792,87.903770 
	C27.510622,89.287354 20.782492,95.699989 17.596264,105.307365 
	C14.204140,115.535583 16.411263,124.865982 24.041348,132.436569 
	C31.186600,139.526093 39.859924,141.635269 49.581963,138.821365 
	C49.581963,133.731964 49.581963,129.037140 49.581963,125.592026 
	C45.914768,125.592026 42.476635,126.170425 39.322094,125.470566 
	C32.926941,124.051765 29.077909,117.710350 30.129063,111.403343 
	C31.113314,105.497749 37.070339,100.779289 43.075558,101.148659 
	C49.451397,101.540817 54.728394,106.689232 54.900906,113.161476 
	C55.105087,120.821960 54.952847,128.491959 54.953846,136.157837 
	C54.954773,143.266510 54.954044,150.375198 54.954044,157.468292 
	C59.916588,157.468292 64.288033,157.468292 68.870354,157.468292 
	C68.870354,143.901505 68.870354,130.745621 68.870377,116.619965 
z"/>
<path fill="#D22425" opacity="1.000000" stroke="none" 
	d="
M115.947586,138.998260 
	C111.748169,139.260635 107.548752,139.523010 103.321152,139.298599 
	C103.161163,138.552155 103.029366,138.292496 102.897575,138.032822 
	C102.788338,131.417419 102.684090,124.801933 102.567017,118.186684 
	C102.528908,116.033287 102.590897,113.867050 102.375931,111.729935 
	C101.731377,105.321732 98.886086,101.648674 94.400215,101.221893 
	C90.275345,100.829460 86.844963,103.740524 84.040176,110.038742 
	C83.301544,120.290138 83.131920,130.033463 82.962296,139.776794 
	C78.994781,139.776794 75.027267,139.776794 70.570679,139.776794 
	C70.570679,130.048126 70.570679,120.344490 70.888596,110.429771 
	C71.407066,110.124557 71.607620,110.030418 71.808167,109.936279 
	C71.529137,109.623062 71.250107,109.309837 70.971077,108.996620 
	C72.695999,89.708252 90.530304,82.356163 109.242523,93.219437 
	C125.860123,80.308434 144.049194,90.106422 147.613571,106.891129 
	C147.612610,108.299553 147.856049,109.134460 148.099472,109.969376 
	C148.099472,119.698982 148.099472,129.428589 148.099472,139.790070 
	C144.144363,139.790070 139.765961,139.790070 135.520966,139.088074 
	C135.771744,132.285217 136.008453,126.183243 135.951767,120.083992 
	C135.926727,117.389214 135.306747,114.699974 134.956848,112.008217 
	C134.648193,111.082314 134.303467,110.166656 134.037018,109.228767 
	C132.750427,104.700020 130.080093,101.373238 125.162727,101.313057 
	C119.350365,101.241928 117.680054,105.763184 115.969467,110.997894 
	C115.296051,116.994080 114.992020,122.431511 115.048965,127.865158 
	C115.087898,131.578934 115.630287,135.287415 115.947586,138.998260 
M146.998001,115.422623 
	C146.998001,121.910042 146.998001,128.397461 146.998001,134.884888 
	C147.288895,134.881439 147.579788,134.877991 147.870682,134.874542 
	C147.870682,128.135666 147.870682,121.396774 147.870682,114.657890 
	C147.592331,114.661804 147.313995,114.665718 146.998001,115.422623 
M103.311371,114.170166 
	C103.464485,114.117416 103.617607,114.064674 103.770721,114.011925 
	C103.617233,113.958519 103.463745,113.905113 103.311371,114.170166 
M71.497314,138.584625 
	C71.497314,138.584625 71.435272,138.471268 71.497314,138.584625 
z"/>
<path fill="#D12425" opacity="1.000000" stroke="none" 
	d="
M68.870361,117.104843 
	C68.870354,130.745621 68.870354,143.901505 68.870354,157.468292 
	C64.288033,157.468292 59.916588,157.468292 54.954044,157.468292 
	C54.954044,150.375198 54.954773,143.266510 54.953846,136.157837 
	C54.952847,128.491959 55.105087,120.821960 54.900906,113.161476 
	C54.728394,106.689232 49.451397,101.540817 43.075558,101.148659 
	C37.070339,100.779289 31.113314,105.497749 30.129063,111.403343 
	C29.077909,117.710350 32.926941,124.051765 39.322094,125.470566 
	C42.476635,126.170425 45.914768,125.592026 49.581963,125.592026 
	C49.581963,129.037140 49.581963,133.731964 49.581963,138.821365 
	C39.859924,141.635269 31.186600,139.526093 24.041348,132.436569 
	C16.411263,124.865982 14.204140,115.535583 17.596264,105.307365 
	C20.782492,95.699989 27.510622,89.287354 37.600792,87.903770 
	C59.167564,84.946487 70.017731,101.173401 68.870361,117.104843 
z"/>
<path fill="#D12425" opacity="1.000000" stroke="none" 
	d="
M167.875961,102.573700 
	C171.112778,94.229233 177.612732,89.581116 186.002304,88.001602 
	C191.624451,86.943100 197.505447,87.259483 203.639648,86.941544 
	C203.639648,91.942863 203.639648,96.307106 203.639648,101.117065 
	C200.074127,101.117065 196.622543,101.176682 193.173737,101.103905 
	C187.119003,100.976151 182.402008,103.184448 180.011429,108.967224 
	C177.699265,114.560287 179.294510,119.346107 184.033768,123.876839 
	C184.753494,124.592575 185.141388,124.742279 185.529282,124.891983 
	C185.529282,124.891983 185.812012,124.826584 186.107971,125.277573 
	C190.598175,126.153183 194.787064,126.827721 198.988464,126.917809 
	C201.970703,126.981743 203.365463,127.856636 203.014725,130.942184 
	C202.902725,131.927567 202.888992,132.950851 203.017944,133.932144 
	C203.516083,137.722229 202.244064,139.564178 198.111191,139.031891 
	C192.065689,138.253265 185.991150,137.700134 179.928986,137.050903 
	C179.928986,137.050903 179.982330,136.995529 179.927032,136.667053 
	C178.841629,135.957230 177.811493,135.575882 176.781372,135.194534 
	C176.781372,135.194534 176.886734,135.151031 176.783081,134.912811 
	C176.130722,134.446411 175.582016,134.218216 175.033310,133.990021 
	C175.033310,133.990021 175.001099,134.006256 174.886261,133.772278 
	C174.557846,133.273178 174.285400,133.101364 173.954086,133.022873 
	C173.954086,133.022873 174.000473,133.000229 173.884491,132.792938 
	C173.493622,132.399170 173.218765,132.212677 172.943893,132.026199 
	C172.943893,132.026199 172.998871,132.001907 172.885559,131.797821 
	C172.501434,131.403168 172.230606,131.212585 171.959793,131.022018 
	C171.959793,131.022018 172.001633,131.000900 171.899826,130.797028 
	C171.622116,130.307678 171.376923,130.106750 171.062439,129.990372 
	C171.062439,129.990372 170.997940,129.987595 170.973755,129.655914 
	C170.555496,128.919662 170.161423,128.515106 169.767349,128.110550 
	C169.767349,128.110550 169.871368,128.101517 169.898376,127.777924 
	C169.266830,126.645515 168.608261,125.836716 167.949692,125.027916 
	C167.949692,125.027916 168.007797,125.021652 167.978470,124.739525 
	C167.649445,123.971489 167.349747,123.485573 167.050064,122.999657 
	C166.714661,122.521080 166.379257,122.042496 166.337250,121.001404 
	C167.045761,114.483833 167.460861,108.528770 167.875961,102.573700 
z"/>
<path fill="#D22C2D" opacity="1.000000" stroke="none" 
	d="
M160.070953,90.040085 
	C161.277405,88.754295 162.483841,87.468506 163.503632,86.381630 
	C163.503632,103.713799 163.503632,121.616203 163.503632,139.761688 
	C159.135513,139.761688 155.026550,139.761688 150.524414,139.761688 
	C150.524414,125.593353 150.524414,111.363922 150.524414,97.509514 
	C153.684326,95.295456 156.899857,93.042435 160.060608,90.398483 
	C160.005859,90.007538 160.070953,90.040085 160.070953,90.040085 
z"/>
<path fill="#9CBB2B" opacity="1.000000" stroke="none" 
	d="
M160.022415,90.040009 
	C158.715973,90.453758 157.378815,90.792511 156.073380,91.226593 
	C154.249695,91.833000 152.449692,92.510582 150.282013,93.285538 
	C150.282013,87.681671 150.282013,82.730186 150.282013,77.402824 
	C154.476227,77.402824 158.520554,77.402824 163.842239,77.402824 
	C162.200623,81.780495 160.738388,85.679794 159.673553,89.809586 
	C160.070953,90.040085 160.005859,90.007538 160.022415,90.040009 
z"/>
<path fill="#C72324" opacity="1.000000" stroke="none" 
	d="
M180.180573,137.315399 
	C185.991150,137.700134 192.065689,138.253265 198.111191,139.031891 
	C202.244064,139.564178 203.516083,137.722229 203.017944,133.932144 
	C202.888992,132.950851 202.902725,131.927567 203.014725,130.942184 
	C203.365463,127.856636 201.970703,126.981743 198.988464,126.917809 
	C194.787064,126.827721 190.598175,126.153183 186.200195,125.389603 
	C191.731918,125.517639 197.467407,125.984634 203.601471,126.484085 
	C203.601471,130.573090 203.601471,134.938156 203.601471,139.860001 
	C195.850677,139.832092 187.964233,141.087967 180.180573,137.315399 
z"/>
<path fill="#B91417" opacity="1.000000" stroke="none" 
	d="
M83.380051,139.660767 
	C83.131920,130.033463 83.301544,120.290138 83.799667,110.282913 
	C84.018051,119.860924 83.907936,129.702835 83.380051,139.660767 
z"/>
<path fill="#C40A10" opacity="1.000000" stroke="none" 
	d="
M116.053940,138.539627 
	C115.630287,135.287415 115.087898,131.578934 115.048965,127.865158 
	C114.992020,122.431511 115.296051,116.994080 115.766869,111.286949 
	C116.111771,120.037422 116.136032,129.059204 116.053940,138.539627 
z"/>
<path fill="#C20000" opacity="1.000000" stroke="none" 
	d="
M134.903778,112.473701 
	C135.306747,114.699974 135.926727,117.389214 135.951767,120.083992 
	C136.008453,126.183243 135.771744,132.285217 135.364380,138.684479 
	C134.999832,130.301636 134.925278,121.620415 134.903778,112.473701 
z"/>
<path fill="#C72324" opacity="1.000000" stroke="none" 
	d="
M167.584488,102.831314 
	C167.460861,108.528770 167.045761,114.483833 166.365814,120.708832 
	C164.472839,114.880516 164.722504,108.907394 167.584488,102.831314 
z"/>
<path fill="#C72324" opacity="1.000000" stroke="none" 
	d="
M176.932983,135.477081 
	C177.811493,135.575882 178.841629,135.957230 179.914825,136.703476 
	C179.000153,136.632126 178.042374,136.195862 176.932983,135.477081 
z"/>
<path fill="#C72324" opacity="1.000000" stroke="none" 
	d="
M167.970398,125.347321 
	C168.608261,125.836716 169.266830,126.645515 169.877625,127.825821 
	C169.216934,127.353798 168.604019,126.510269 167.970398,125.347321 
z"/>
<path fill="#CD1111" opacity="1.000000" stroke="none" 
	d="
M148.154999,109.602982 
	C147.856049,109.134460 147.612610,108.299553 147.594910,107.262184 
	C147.950607,107.785347 148.080582,108.510963 148.154999,109.602982 
z"/>
<path fill="#C72324" opacity="1.000000" stroke="none" 
	d="
M175.187973,134.235931 
	C175.582016,134.218216 176.130722,134.446411 176.775574,134.969315 
	C176.362030,135.003296 175.852325,134.742569 175.187973,134.235931 
z"/>
<path fill="#C72324" opacity="1.000000" stroke="none" 
	d="
M169.823364,128.392975 
	C170.161423,128.515106 170.555496,128.919662 170.986862,129.626404 
	C170.642563,129.510864 170.260986,129.093124 169.823364,128.392975 
z"/>
<path fill="#C72324" opacity="1.000000" stroke="none" 
	d="
M167.038437,123.294312 
	C167.349747,123.485573 167.649445,123.971489 167.956055,124.758339 
	C167.650894,124.569176 167.338852,124.079071 167.038437,123.294312 
z"/>
<path fill="#D21216" opacity="1.000000" stroke="none" 
	d="
M70.898361,109.216736 
	C71.250107,109.309837 71.529137,109.623062 71.808167,109.936279 
	C71.607620,110.030418 71.407066,110.124557 71.067673,110.053772 
	C70.928825,109.888855 70.825653,109.436852 70.898361,109.216736 
z"/>
<path fill="#C72324" opacity="1.000000" stroke="none" 
	d="
M185.344864,124.638611 
	C185.141388,124.742279 184.753494,124.592575 184.195084,124.177109 
	C184.403198,124.069305 184.781815,124.227272 185.344864,124.638611 
z"/>
<path fill="#C72324" opacity="1.000000" stroke="none" 
	d="
M171.113190,130.238480 
	C171.376923,130.106750 171.622116,130.307678 171.887924,130.817245 
	C171.706528,130.856430 171.435226,130.671509 171.113190,130.238480 
z"/>
<path fill="#C72324" opacity="1.000000" stroke="none" 
	d="
M172.038483,131.270538 
	C172.230606,131.212585 172.501434,131.403168 172.873505,131.825348 
	C172.688873,131.877655 172.403015,131.698349 172.038483,131.270538 
z"/>
<path fill="#C72324" opacity="1.000000" stroke="none" 
	d="
M173.024780,132.274612 
	C173.218765,132.212677 173.493622,132.399170 173.873505,132.816315 
	C173.687561,132.872314 173.396606,132.697662 173.024780,132.274612 
z"/>
<path fill="#C72324" opacity="1.000000" stroke="none" 
	d="
M174.035370,133.268250 
	C174.285400,133.101364 174.557846,133.273178 174.887146,133.754288 
	C174.707458,133.818039 174.412064,133.665817 174.035370,133.268250 
z"/>
<path fill="#CE1110" opacity="1.000000" stroke="none" 
	d="
M102.825989,138.283386 
	C103.029366,138.292496 103.161163,138.552155 103.126205,138.912460 
	C102.891098,138.853378 102.822754,138.693649 102.825989,138.283386 
z"/>
<path fill="#CD1111" opacity="1.000000" stroke="none" 
	d="
M147.016815,115.046127 
	C147.313995,114.665718 147.592331,114.661804 147.870682,114.657883 
	C147.870682,121.396774 147.870682,128.135666 147.870682,134.874542 
	C147.579788,134.877991 147.288895,134.881439 146.998001,134.884888 
	C146.998001,128.397461 146.998001,121.910042 147.016815,115.046127 
z"/>
<path fill="#CE1110" opacity="1.000000" stroke="none" 
	d="
M103.310814,114.010941 
	C103.463745,113.905113 103.617233,113.958519 103.770721,114.011925 
	C103.617607,114.064674 103.464485,114.117416 103.310814,114.010941 
z"/>
<path fill="#D21216" opacity="1.000000" stroke="none" 
	d="
M71.466293,138.527954 
	C71.435272,138.471268 71.497314,138.584625 71.466293,138.527954 
z"/>
</svg>