<?xml version="1.0" encoding="UTF-8" standalone="no"?>
<!-- Created with Inkscape (http://www.inkscape.org/) -->

<svg
   version="1.1"
   id="svg2"
   width="388.33334"
   height="374.44"
   viewBox="0 0 388.33334 374.44"
   sodipodi:docname="UM-Dearborn_Logo-RGB.eps"
   xmlns:inkscape="http://www.inkscape.org/namespaces/inkscape"
   xmlns:sodipodi="http://sodipodi.sourceforge.net/DTD/sodipodi-0.dtd"
   xmlns="http://www.w3.org/2000/svg"
   xmlns:svg="http://www.w3.org/2000/svg">
  <defs
     id="defs6" />
  <sodipodi:namedview
     id="namedview4"
     pagecolor="#ffffff"
     bordercolor="#000000"
     borderopacity="0.25"
     inkscape:showpageshadow="2"
     inkscape:pageopacity="0.0"
     inkscape:pagecheckerboard="0"
     inkscape:deskcolor="#d1d1d1" />
  <g
     id="g8"
     inkscape:groupmode="layer"
     inkscape:label="ink_ext_XXXXXX"
     transform="matrix(1.3333333,0,0,-1.3333333,0,374.44)">
    <g
       id="g10"
       transform="scale(0.1)">
      <path
         d="M 2912.49,0 H 0 V 2808.29 H 2912.49 V 0"
         style="fill:#192847;fill-opacity:1;fill-rule:nonzero;stroke:none"
         id="path12" />
      <path
         d="m 1458.64,1135.24 -433.39,592.23 v -430.71 h 172.31 V 871.031 H 400.418 v 425.729 h 161.687 v 662.15 H 400.418 v 425.45 h 626.152 l 432.07,-596.44 432.06,596.44 h 625.89 v -425.45 h -161.62 v -662.15 h 161.62 V 871.031 h -797.08 v 425.729 h 172.38 v 430.71 l -433.25,-592.23"
         style="fill:#fbc808;fill-opacity:1;fill-rule:nonzero;stroke:none"
         id="path14" />
      <path
         d="m 874.52,493.109 h -11.215 c -2.446,-12.859 -6.469,-22.14 -12.016,-27.621 -5.676,-5.609 -12.141,-8.769 -19.137,-9.726 -6.992,-1.024 -18.082,-1.582 -33.191,-1.582 -14.52,0 -24.289,1.808 -29.305,5.41 -5.082,3.629 -7.59,9.5 -7.59,17.519 v 64.711 h 24.75 c 10.293,0 17.883,-0.601 22.766,-1.851 5.02,-1.188 8.578,-3.797 10.691,-7.688 2.114,-3.929 3.168,-10.23 3.168,-18.972 h 11.157 v 76.293 h -11.157 c -0.855,-7.461 -2.179,-13.071 -4.16,-16.832 -1.91,-3.7 -5.211,-6.399 -10.093,-8.051 -4.75,-1.59 -12.145,-2.379 -22.043,-2.379 h -25.079 v 80.969 h 28.446 c 14.453,0 25.34,-0.59 32.597,-2.071 7.329,-1.386 12.871,-4.519 17.094,-9.367 4.027,-4.859 6.93,-12.441 8.582,-22.711 h 10.559 l -1.121,54.75 H 693.762 V 651.5 c 9.504,-0.859 15.968,-1.98 19.402,-3.398 3.367,-1.582 5.742,-4.852 6.996,-9.832 1.059,-5.911 1.781,-19.801 1.781,-41.778 v -80.941 c 0,-19.172 -0.261,-32.403 -0.722,-39.602 -0.071,-8.867 -0.86,-15.168 -2.18,-18.801 -1.32,-3.636 -3.762,-6.066 -7.195,-7.527 -3.563,-1.449 -9.633,-2.512 -18.082,-3.332 V 433.59 h 175.547 c 0,14.379 1.714,34.211 5.211,59.519 z m 204.19,29.961 -32.41,95.828 -33.78,-95.828 z m 96.02,-89.48 H 1066.9 v 12.371 c 9.63,0.891 16.69,2.141 21.11,3.988 4.42,1.781 6.67,5.512 6.67,11.223 0,3.297 -0.79,7.918 -2.44,13.457 l -6.87,23.66 h -81.3 l -7.261,-20.019 c -1.848,-5.75 -2.704,-10.469 -2.704,-14.059 0,-7.262 2.704,-11.949 8.115,-14.191 5.48,-2.051 13.07,-3.399 22.97,-4.059 V 433.59 h -94.838 v 12.371 c 8.445,0.43 15.046,1.488 19.8,3.199 4.618,1.781 8.645,4.52 11.743,8.649 3.105,3.992 6.207,10.16 9.242,18.441 l 62.233,170.988 -3.7,5.453 c 13.07,4.188 22.57,7.719 28.25,10.489 5.81,2.64 11.75,6.269 17.75,10.66 2.77,-9.668 6.27,-20.82 10.23,-33.82 l 51.08,-156.54 c 3.3,-10.07 6.14,-17.46 8.71,-22.179 2.64,-4.821 6.07,-8.242 10.3,-10.492 4.29,-2.18 10.49,-3.789 18.74,-4.848 z m 124.99,211.242 v -83.023 c 6.4,-1.649 13.6,-2.508 21.45,-2.508 8.38,0 16.3,1.789 23.43,5.418 7.06,3.39 12.74,8.051 16.96,13.722 4.09,5.61 6.27,11.489 6.73,17.821 0.73,14.679 -3.1,26.629 -11.81,36 -8.65,9.468 -22.9,14.09 -42.83,14.09 -5.48,0 -10.1,-0.532 -13.93,-1.52 z m 0,-103.613 v -33.848 c 0.2,-20.133 0.66,-33.922 1.52,-41.25 0.79,-7.461 3.03,-12.441 6.67,-15.039 3.56,-2.781 10.22,-4.301 19.86,-4.793 V 433.59 h -96.35 v 12.699 c 8.58,0.82 14.84,2.012 18.48,3.66 3.56,1.621 6,4.289 7.19,8.192 1.19,3.757 1.91,10.089 2.05,18.968 0.26,6.5 0.39,16.43 0.39,29.93 v 83.449 c 0,23.793 -0.53,38.703 -1.58,45.043 -0.73,6.199 -2.97,10.289 -6.47,12.34 -3.5,2.039 -10.23,3.359 -20.06,3.961 v 12.34 h 104.47 c 26.59,0 45.8,-5.442 57.48,-16.07 11.68,-10.793 17.55,-25.211 17.55,-43.192 0,-11.75 -3.89,-23.07 -11.68,-33.789 -7.72,-10.691 -19.14,-18.41 -34.05,-22.973 l 41.18,-75.296 c 4.75,-9.172 9.17,-16.231 12.93,-20.954 3.83,-4.75 7.86,-8.089 12.08,-10.257 4.29,-2.11 9.63,-3.762 16.04,-4.692 v -7.847 c -6.41,-0.43 -11.55,-0.633 -15.18,-0.633 -14.39,0 -26.4,1.781 -35.84,5.32 -9.43,3.563 -17.62,9.172 -24.22,16.859 -6.73,7.782 -13.19,18.442 -19.6,31.942 l -12.73,26.89 c -4.69,10.032 -8.58,17.161 -11.75,21.411 -3.23,4.23 -6.86,6.898 -10.69,8.218 -3.96,1.192 -9.9,1.852 -17.69,2.11 z m 281.53,3.601 h -21.38 V 491 c 0,-10.102 0.53,-17.418 1.32,-22.141 0.99,-4.82 3.5,-8.449 7.59,-11.05 4.09,-2.637 10.96,-3.829 20.33,-3.829 7.85,0 15.97,1.481 24.28,4.551 8.19,3.098 15.25,8.219 20.99,15.078 5.74,7 8.58,16 8.58,27.09 0,12.082 -2.38,21.352 -7.13,27.789 -4.75,6.434 -11.42,10.75 -20.06,13.004 -8.71,2.27 -20.13,3.328 -34.52,3.328 z m -21.38,99.09 v -77.68 c 13.93,-0.089 26.07,0.758 36.37,2.641 10.35,1.891 19,6.238 25.86,12.668 6.87,6.473 10.3,16.242 10.3,28.84 0,13.141 -5.02,22.109 -14.78,26.961 -9.9,4.82 -23.63,7.262 -41.12,7.262 -3.43,0 -8.91,-0.301 -16.63,-0.692 z m -72.53,20.59 h 118.73 c 10.69,0 20.06,-0.59 28.11,-1.75 8.05,-1.289 15.31,-3.891 21.71,-7.891 7.26,-4.32 12.94,-10.16 16.96,-17.847 4.03,-7.59 6.01,-15.871 6.01,-24.84 0,-29.371 -19.47,-48.113 -58.54,-56.172 10.63,-1.051 19.8,-2.371 27.32,-4.281 7.59,-1.821 14.52,-4.949 20.99,-9.571 15.11,-10.757 22.64,-26 22.64,-45.968 0,-20.559 -7.66,-36.918 -22.97,-49.032 -7.06,-5.316 -14.85,-8.91 -23.43,-10.859 -8.51,-1.707 -19.47,-2.699 -32.67,-2.699 h -75.56 -30.82 v 12.371 c 5.81,1.488 8.78,8.121 8.78,20.059 0.4,10.859 0.53,30.16 0.53,57.851 v 68.961 c 0,20.887 -0.4,34.578 -1.12,41.508 -0.86,6.801 -2.97,11.32 -6.41,13.43 -3.43,2.011 -10.16,3.531 -20.26,4.32 z m 372.54,-219.102 c 7.92,0.262 15.77,2.571 23.83,6.993 8.11,4.429 15.37,11.488 21.77,21.418 7.06,10.89 11.95,21.742 14.72,32.441 2.64,10.891 3.96,23.16 3.96,36.98 0,35.942 -8.58,63.262 -25.94,82 -12.47,12.84 -26.26,19.071 -41.44,18.68 -14.85,0 -28.31,-6.601 -40.46,-20.16 -15.83,-18.051 -23.75,-42.668 -23.75,-74.148 0,-16.102 1.38,-30.161 4.42,-42.133 3.03,-11.918 8.58,-23.66 16.69,-35.149 6.8,-9.699 14.32,-16.558 22.38,-20.718 8.25,-4.153 16.16,-6.204 23.82,-6.204 z m 115.1,99.954 c 0,-25.512 -5.22,-47.454 -15.71,-65.77 -10.56,-18.312 -24.49,-32.242 -41.97,-41.602 -17.56,-9.339 -36.7,-14.031 -57.42,-14.031 -22.37,0 -42.57,5.051 -60.71,15.281 -18.15,10.192 -32.47,24.45 -42.97,42.86 -10.42,18.48 -15.64,39.66 -15.64,63.691 0,21.309 4.56,41.141 13.73,59.36 9.17,18.25 22.37,32.828 39.86,43.781 17.36,10.887 37.95,16.437 61.77,16.437 22.97,0 43.49,-5.019 61.57,-15.25 18.15,-10.129 32.28,-24.347 42.44,-42.629 9.96,-18.21 15.05,-38.871 15.05,-62.128 z m 111.46,97.367 V 557.16 c 7.59,-1.289 14.71,-2.078 21.58,-2.078 8.45,0 16.23,1.906 23.23,5.738 7.06,3.899 12.74,8.711 16.96,14.821 4.22,6.097 6.53,12.308 6.86,18.507 0.8,14.723 -2.97,26.633 -11.61,35.934 -8.52,9.207 -22.77,13.828 -42.7,13.828 -5.41,0 -10.23,-0.328 -14.32,-1.191 z m 0,-105.789 v -29.891 c 0.26,-20.129 0.86,-33.789 1.58,-41.019 0.8,-7.36 2.97,-12.34 6.67,-14.938 3.63,-2.781 10.29,-4.23 19.93,-4.461 V 433.59 h -96.35 v 13.031 c 8.71,0.527 14.78,1.68 18.41,3.328 3.63,1.621 6.07,4.289 7.26,8.192 1.19,3.757 1.91,10.089 2.11,18.968 0.33,6.243 0.33,16.129 0.33,29.629 v 83.75 c 0,23.391 -0.46,38.274 -1.25,44.711 -0.73,6.242 -2.91,10.36 -6.54,12.371 -3.5,1.95 -10.29,3.469 -20.32,4.262 V 664.5 h 104.53 c 26.53,0 45.67,-5.48 57.29,-16.398 11.48,-11.09 17.35,-25.372 17.35,-43.192 0,-7.789 -1.65,-15.781 -5.01,-23.961 -3.31,-8.179 -8.38,-15.64 -15.12,-22.238 -6.73,-6.66 -15.18,-11.551 -25.21,-14.781 l 40.85,-71.078 c 4.95,-9.172 9.38,-16.231 13.2,-20.954 3.83,-4.75 7.86,-8.089 12.01,-10.257 4.09,-2.11 9.44,-3.762 15.78,-4.692 v -7.847 c -6.34,-0.43 -11.35,-0.633 -14.79,-0.633 -14.45,0 -26.46,1.781 -35.96,5.32 -9.37,3.563 -17.49,9.102 -24.09,16.762 -6.67,7.648 -13.2,18.211 -19.73,31.738 l -12.67,27.191 c -4.36,9.7 -8.26,16.301 -11.42,19.93 -3.37,3.629 -6.54,5.711 -9.9,6.328 -3.3,0.633 -9.5,0.992 -18.94,1.192 z m 280.01,-90.969 c -12.87,1.488 -21.58,3 -26.26,4.687 -4.62,1.743 -7.73,5.184 -9.24,10.223 -1.52,5.25 -2.25,14.32 -2.25,27.418 v 119.75 l 91.27,-112.418 c 6.01,-7.332 12.15,-14.949 18.42,-23.031 l 12.93,-15.969 20.52,-25.711 h 13.6 l 3.37,178.051 c 0.19,13.437 0.85,23 1.98,28.609 1.12,5.68 3.49,9.512 7.25,11.352 3.7,1.918 9.9,3.039 18.55,3.168 v 12.41 h -90.94 v -12.41 c 13.33,-0.59 22.31,-1.649 27.06,-3.168 4.68,-1.453 7.78,-4.621 8.84,-9.301 1.26,-4.781 1.98,-13.891 2.18,-27.449 V 508.879 l -64.35,79.82 c -16.16,19.903 -27.19,33.762 -33.06,41.68 -6.01,7.891 -14.19,19.141 -24.68,34.121 h -69.16 v -12.41 c 7.85,-0.789 13.79,-2.078 17.82,-3.891 4.02,-1.847 9.17,-5.578 15.5,-11.48 -0.46,-23.528 -1.18,-57.02 -2.37,-100.348 -1.06,-43.391 -1.92,-68.57 -2.25,-75.93 -0.19,-3.961 -0.79,-6.929 -1.71,-8.91 -0.93,-2.043 -1.92,-3.429 -3.3,-3.992 -1.32,-0.617 -3.1,-1.148 -5.15,-1.578 V 433.59 h 75.43 z M 486.012,643.68 H 465.754 V 494 c 0,-11.91 0.461,-20.391 1.519,-25.441 0.989,-5.18 3.235,-8.68 6.793,-10.661 3.567,-1.867 9.305,-2.796 17.36,-2.796 21.117,0 39.07,4.289 53.519,12.839 14.653,8.539 25.739,20.161 32.996,35 7.325,14.789 11.09,31.547 11.09,50.329 0,14.32 -2.312,26.691 -6.867,36.921 -4.484,10.297 -11.414,20.329 -20.719,30.161 -6.597,7.289 -14.125,12.597 -22.437,15.937 -8.379,3.332 -16.367,5.313 -24.024,5.973 -7.586,0.758 -17.421,1.218 -28.972,1.418 z M 498.418,433.59 H 395.93 v 13.031 c 8.121,0.828 13.859,1.949 17.226,3.328 3.364,1.391 5.809,4.031 7.063,7.66 1.121,3.762 1.847,9.903 2.043,18.641 0.394,7.23 0.593,20.359 0.593,39.5 v 80.742 c 0,22.18 -0.593,36.129 -1.781,42.067 -1.254,5.023 -3.496,8.25 -6.863,9.773 -3.367,1.449 -9.438,2.707 -18.281,3.5 v 12.34 h 105.789 c 18.941,0 34.386,-0.793 46.656,-2.582 12.211,-1.781 24.023,-5.93 35.441,-12.801 14.321,-8.609 26.528,-21.48 36.629,-38.41 10.028,-16.918 15.047,-36.758 15.047,-59.559 0,-29.398 -7.988,-54.539 -24.09,-75.461 -9.898,-12.597 -21.511,-21.847 -34.648,-27.82 -13.195,-6.098 -25.672,-9.73 -37.484,-11.25 -11.813,-1.379 -25.407,-2.238 -40.852,-2.699"
         style="fill:#ffffff;fill-opacity:1;fill-rule:nonzero;stroke:none"
         id="path16" />
    </g>
  </g>
</svg>
